<?xml version="1.0" encoding="iso-8859-1"?>
<!-- Generator: Adobe Illustrator 19.0.0, SVG Export Plug-In . SVG Version: 6.00 Build 0)  -->
<svg version="1.1" id="Capa_1" xmlns="http://www.w3.org/2000/svg" xmlns:xlink="http://www.w3.org/1999/xlink" x="0px" y="0px"
	 viewBox="0 0 464 464" style="enable-background:new 0 0 464 464;" xml:space="preserve">
<path style="fill:#FF8800;" d="M0,396.12c-0.001-18.003,7.15-35.269,19.88-48L348.12,19.88c12.731-12.73,29.997-19.881,48-19.88
	C433.609,0,464,30.391,464,67.88c0,0,0,0,0,0c0.001,18.003-7.15,35.269-19.88,48L115.88,444.12
	c-12.731,12.73-29.997,19.881-48,19.88C30.391,464,0,433.609,0,396.12C0,396.12,0,396.12,0,396.12z"/>
<g>
	<path style="fill:#FADBB7;" d="M56,312L312,56c-30.929-30.926-81.071-30.926-112,0L56,200C25.074,230.929,25.074,281.071,56,312z"
		/>
	<path style="fill:#FADBB7;" d="M152,408c30.929,30.926,81.071,30.926,112,0l144-144c30.926-30.929,30.926-81.071,0-112L152,408z"/>
</g>
<path style="fill:#DE0418;" d="M88,440H72v-16c0-17.673,14.327-32,32-32c8.837,0,16-7.163,16-16c0-17.673,14.327-32,32-32
	c8.837,0,16-7.163,16-16c0-17.673,14.327-32,32-32c8.837,0,16-7.163,16-16c0-17.673,14.327-32,32-32c8.837,0,16-7.163,16-16
	c0-17.673,14.327-32,32-32c8.837,0,16-7.163,16-16c0-17.673,14.327-32,32-32c8.837,0,16-7.163,16-16c0-17.673,14.327-32,32-32
	c8.837,0,16-7.163,16-16V64h16v24c0,17.673-14.327,32-32,32c-8.837,0-16,7.163-16,16c0,17.673-14.327,32-32,32
	c-8.837,0-16,7.163-16,16c0,17.673-14.327,32-32,32c-8.837,0-16,7.163-16,16c0,17.673-14.327,32-32,32c-8.837,0-16,7.163-16,16
	c0,17.673-14.327,32-32,32c-8.837,0-16,7.163-16,16c0,17.673-14.327,32-32,32c-8.837,0-16,7.163-16,16c0,17.673-14.327,32-32,32
	c-8.837,0-16,7.163-16,16V440z"/>
<path style="fill:#FFA900;" d="M48,408H32v-24c0-17.673,14.327-32,32-32c8.837,0,16-7.163,16-16c0-17.673,14.327-32,32-32
	c8.837,0,16-7.163,16-16c0-17.673,14.327-32,32-32c8.837,0,16-7.163,16-16c0-17.673,14.327-32,32-32c8.837,0,16-7.163,16-16
	c0-17.673,14.327-32,32-32c8.837,0,16-7.163,16-16c0-17.673,14.327-32,32-32c8.837,0,16-7.163,16-16c0-17.673,14.327-32,32-32
	c8.837,0,16-7.163,16-16V24h16v24c0,17.673-14.327,32-32,32c-8.837,0-16,7.163-16,16c0,17.673-14.327,32-32,32
	c-8.837,0-16,7.163-16,16c0,17.673-14.327,32-32,32c-8.837,0-16,7.163-16,16c0,17.673-14.327,32-32,32c-8.837,0-16,7.163-16,16
	c0,17.673-14.327,32-32,32c-8.837,0-16,7.163-16,16c0,17.673-14.327,32-32,32c-8.837,0-16,7.163-16,16c0,17.673-14.327,32-32,32
	c-8.837,0-16,7.163-16,16V408z"/>
<g>
</g>
<g>
</g>
<g>
</g>
<g>
</g>
<g>
</g>
<g>
</g>
<g>
</g>
<g>
</g>
<g>
</g>
<g>
</g>
<g>
</g>
<g>
</g>
<g>
</g>
<g>
</g>
<g>
</g>
</svg>
